<svg width="32" height="32" viewBox="0 0 32 32" fill="none" xmlns="http://www.w3.org/2000/svg">
<g id="shield-check-r">
<path id="Subtract" fill-rule="evenodd" clip-rule="evenodd" d="M15.9998 2.91211L20.8027 4.97047L26.3332 4.1804V13.6557L24.3332 14.3544V6.48642L20.5303 7.02968L15.9998 5.08804L11.4693 7.02968L7.6665 6.48642V15.8665C7.6665 19.7089 9.73307 23.2543 13.0764 25.1479L16.0787 26.8483L18.9945 25.1672C20.957 24.0356 22.472 22.3329 23.3785 20.3374L25.8239 19.4831C24.9203 22.5708 22.8585 25.2479 19.9935 26.8998L16.0876 29.1518L12.0908 26.8882C8.12055 24.6395 5.6665 20.4293 5.6665 15.8665V4.1804L11.197 4.97047L15.9998 2.91211ZM21.8807 12.7022L14.4827 20.079L10.1189 15.7277L11.5311 14.3114L14.4827 17.2546L20.4685 11.2859L21.8807 12.7022Z" fill="black"/>
</g>
</svg>
