<svg width="32" height="32" viewBox="0 0 32 32" fill="none" xmlns="http://www.w3.org/2000/svg">
<g id="smile-happy-r">
<path id="Subtract" fill-rule="evenodd" clip-rule="evenodd" d="M21.0533 4.01871C19.4999 3.3627 17.7923 3 16 3C8.8203 3 3 8.8203 3 16C3 23.1797 8.8203 29 16 29C23.1797 29 29 23.1797 29 16C29 12.5382 27.6469 9.39251 25.4408 7.06283L24.2019 8.66989C25.942 10.6156 27 13.1843 27 16C27 22.0751 22.0751 27 16 27C9.92487 27 5 22.0751 5 16C5 9.92487 9.92487 5 16 5C17.329 5 18.6029 5.23568 19.7823 5.66753L21.0533 4.01871ZM12.3333 11.6667C11.597 11.6667 11 12.2636 11 13C11 13.7364 11.597 14.3333 12.3333 14.3333C13.0697 14.3333 13.6667 13.7364 13.6667 13C13.6667 12.2636 13.0697 11.6667 12.3333 11.6667ZM11.0116 18.691C11.971 20.4652 13.8459 21.6667 16 21.6667C18.1541 21.6667 20.029 20.4652 20.9884 18.691L22.7476 19.6424C21.4528 22.0367 18.9175 23.6667 16 23.6667C13.0825 23.6667 10.5471 22.0367 9.25234 19.6424L11.0116 18.691ZM19.6667 11.6667C18.9303 11.6667 18.3333 12.2636 18.3333 13C18.3333 13.7364 18.9303 14.3333 19.6667 14.3333C20.403 14.3333 21 13.7364 21 13C21 12.2636 20.403 11.6667 19.6667 11.6667Z" fill="black"/>
</g>
</svg>
