<svg width="32" height="32" viewBox="0 0 32 32" fill="none" xmlns="http://www.w3.org/2000/svg">
<g id="user-r">
<path id="Subtract" fill-rule="evenodd" clip-rule="evenodd" d="M10.3332 8.66667C10.3332 5.53705 12.8702 3 15.9998 3C19.1295 3 21.6665 5.53705 21.6665 8.66667C21.6665 11.7963 19.1295 14.3333 15.9998 14.3333C12.8702 14.3333 10.3332 11.7963 10.3332 8.66667ZM15.9998 5C13.9748 5 12.3332 6.64162 12.3332 8.66667C12.3332 10.6917 13.9748 12.3333 15.9998 12.3333C18.0249 12.3333 19.6665 10.6917 19.6665 8.66667C19.6665 6.64162 18.0249 5 15.9998 5ZM5.6665 27.3333C5.6665 21.6264 10.2929 17 15.9998 17C21.7068 17 26.3332 21.6264 26.3332 27.3333V29H18.6665V27H24.3266C24.1517 22.5522 20.4906 19 15.9998 19C11.5091 19 7.84802 22.5522 7.67305 27H13.3332V29H5.6665V27.3333Z" fill="black"/>
</g>
</svg>
