<svg width="24" height="24" viewBox="0 0 24 24" fill="none" xmlns="http://www.w3.org/2000/svg">
<g id="Social">
<path id="Vector" d="M11.9995 2.00024C9.28551 2.00024 8.94451 2.01324 7.87851 2.06024C6.81251 2.11024 6.08551 2.27724 5.44951 2.52524C4.78219 2.77637 4.17777 3.17021 3.67851 3.67924C3.1698 4.17877 2.77601 4.78311 2.52451 5.45024C2.27651 6.08524 2.10851 6.81224 2.05951 7.87524C2.01251 8.94424 1.99951 9.28424 1.99951 12.0012C1.99951 14.7162 2.01251 15.0562 2.05951 16.1222C2.10951 17.1882 2.27651 17.9142 2.52451 18.5502C2.77604 19.2174 3.16983 19.8217 3.67851 20.3212C4.17715 20.8306 4.78132 21.2245 5.44851 21.4752C6.08551 21.7222 6.81051 21.8912 7.87551 21.9402C8.94351 21.9872 9.28351 22.0002 11.9995 22.0002C14.7155 22.0002 15.0545 21.9882 16.1215 21.9402C17.1855 21.8902 17.9145 21.7222 18.5515 21.4752C19.2185 21.2241 19.8226 20.8302 20.3215 20.3212C20.8298 19.8216 21.2233 19.2173 21.4745 18.5502C21.7205 17.9142 21.8895 17.1872 21.9395 16.1222C21.9865 15.0562 21.9995 14.7162 21.9995 12.0002C21.9995 9.28424 21.9875 8.94424 21.9395 7.87624C21.8895 6.81224 21.7205 6.08524 21.4745 5.45024C21.2231 4.78308 20.8293 4.17873 20.3205 3.67924C19.8214 3.17001 19.2169 2.77613 18.5495 2.52524C17.9125 2.27724 17.1845 2.10924 16.1205 2.06024C15.0535 2.01324 14.7145 2.00024 11.9975 2.00024H11.9995ZM11.1035 3.80324H11.9995C14.6695 3.80324 14.9865 3.81124 16.0395 3.86024C17.0145 3.90424 17.5445 4.06824 17.8975 4.20424C18.3635 4.38524 18.6975 4.60324 19.0475 4.95224C19.3975 5.30224 19.6135 5.63524 19.7945 6.10224C19.9325 6.45424 20.0945 6.98424 20.1385 7.95924C20.1875 9.01224 20.1975 9.32924 20.1975 11.9982C20.1975 14.6662 20.1875 14.9842 20.1385 16.0382C20.0945 17.0122 19.9315 17.5412 19.7945 17.8942C19.6344 18.3284 19.3787 18.7211 19.0465 19.0432C18.724 19.3752 18.331 19.6305 17.8965 19.7902C17.5465 19.9272 17.0165 20.0902 16.0395 20.1352C14.9865 20.1822 14.6695 20.1942 11.9995 20.1942C9.32951 20.1942 9.01251 20.1832 7.95851 20.1352C6.98351 20.0902 6.45451 19.9272 6.10251 19.7902C5.66817 19.6303 5.27521 19.375 4.95251 19.0432C4.6197 18.7208 4.36342 18.3278 4.20251 17.8932C4.06651 17.5412 3.90251 17.0112 3.85851 16.0362C3.81151 14.9822 3.80151 14.6662 3.80151 11.9952C3.80151 9.32524 3.81151 9.01024 3.85851 7.95624C3.90351 6.98124 4.06651 6.45124 4.20351 6.09924C4.38451 5.63324 4.60251 5.29924 4.95251 4.94924C5.27496 4.61689 5.66797 4.36126 6.10251 4.20124C6.45451 4.06424 6.98351 3.90124 7.95851 3.85624C8.88151 3.81424 9.23851 3.80124 11.1025 3.80024V3.80324H11.1035ZM17.3385 5.46324C17.0203 5.46324 16.715 5.58967 16.49 5.81472C16.2649 6.03976 16.1385 6.34498 16.1385 6.66324C16.1385 6.9815 16.2649 7.28673 16.49 7.51177C16.715 7.73682 17.0203 7.86324 17.3385 7.86324C17.6568 7.86324 17.962 7.73682 18.187 7.51177C18.4121 7.28673 18.5385 6.9815 18.5385 6.66324C18.5385 6.34498 18.4121 6.03976 18.187 5.81472C17.962 5.58967 17.6568 5.46324 17.3385 5.46324ZM11.9995 6.86524C10.6374 6.84403 9.32257 7.36479 8.34438 8.31297C7.36619 9.26116 6.80473 10.5591 6.78351 11.9212C6.76229 13.2834 7.28306 14.5982 8.23124 15.5764C9.17943 16.5546 10.4774 17.116 11.8395 17.1372C13.2017 17.1585 14.5165 16.6377 15.4946 15.6895C16.4728 14.7413 17.0343 13.4434 17.0555 12.0812C17.0767 10.7191 16.556 9.4043 15.6078 8.42611C14.6596 7.44792 13.3617 6.88646 11.9995 6.86524ZM11.9995 8.66624C12.4373 8.66624 12.8709 8.75248 13.2754 8.92003C13.6799 9.08758 14.0474 9.33316 14.357 9.64275C14.6666 9.95234 14.9122 10.3199 15.0797 10.7244C15.2473 11.1289 15.3335 11.5624 15.3335 12.0002C15.3335 12.4381 15.2473 12.8716 15.0797 13.2761C14.9122 13.6806 14.6666 14.0481 14.357 14.3577C14.0474 14.6673 13.6799 14.9129 13.2754 15.0805C12.8709 15.248 12.4373 15.3342 11.9995 15.3342C11.1153 15.3342 10.2673 14.983 9.64202 14.3577C9.01677 13.7325 8.66551 12.8845 8.66551 12.0002C8.66551 11.116 9.01677 10.268 9.64202 9.64275C10.2673 9.0175 11.1153 8.66624 11.9995 8.66624Z" fill="black"/>
</g>
</svg>
