<svg width="24" height="24" viewBox="0 0 24 24" fill="none" xmlns="http://www.w3.org/2000/svg">
<g id="IN">
<path id="Subtract" fill-rule="evenodd" clip-rule="evenodd" d="M7.06867 20.6907V9.03801H3.19518V20.6907H7.06867ZM7.32286 5.43548C7.32286 6.55418 6.48287 7.44836 5.13322 7.44836H5.10741C3.80678 7.44836 2.9668 6.55418 2.9668 5.43548C2.9668 4.29228 3.8313 3.42132 5.15902 3.42261C6.48416 3.42261 7.29964 4.29098 7.32286 5.43548ZM13.0492 14.1863V20.6907H9.17832C9.17832 20.6907 9.22606 10.1322 9.17832 9.03801H13.0492V10.6896L13.0234 10.7296H13.0492V10.6896C13.5653 9.89477 14.4866 8.76447 16.5408 8.76447C19.0891 8.76447 20.9988 10.429 20.9988 14.0108V20.6946H17.1266V14.4599C17.1266 12.8921 16.5666 11.8251 15.1653 11.8251C14.0944 11.8251 13.457 12.5463 13.1783 13.2405C13.075 13.4896 13.0492 13.8379 13.0492 14.1863Z" fill="black"/>
</g>
</svg>
