<svg width="24" height="24" viewBox="0 0 24 24" fill="none" xmlns="http://www.w3.org/2000/svg">
<g id="TW">
<path id="Vector" d="M8.43044 19.7996C15.6754 19.7996 19.6394 13.7946 19.6394 8.59756C19.6394 8.42956 19.6394 8.25956 19.6324 8.09156C20.4039 7.53267 21.0696 6.84087 21.5984 6.04856C20.8779 6.36644 20.1143 6.57604 19.3324 6.67056C20.1561 6.17816 20.7729 5.40352 21.0684 4.49056C20.2942 4.94896 19.4468 5.27065 18.5634 5.44156C17.9697 4.80908 17.1839 4.39006 16.3279 4.24943C15.4719 4.10879 14.5933 4.25439 13.8285 4.66366C13.0636 5.07294 12.455 5.72304 12.097 6.51325C11.7391 7.30345 11.6517 8.18966 11.8484 9.03456C10.2822 8.95594 8.74994 8.54898 7.35108 7.84008C5.95222 7.13118 4.718 6.13616 3.72844 4.91956C3.22595 5.78737 3.07262 6.81391 3.29959 7.79068C3.52655 8.76745 4.1168 9.62121 4.95044 10.1786C4.32559 10.1573 3.71449 9.98944 3.16644 9.68856V9.74256C3.16753 10.6517 3.48249 11.5325 4.05808 12.2362C4.63368 12.9399 5.43459 13.4232 6.32544 13.6046C5.74661 13.7615 5.13971 13.7851 4.55044 13.6736C4.80198 14.4561 5.29204 15.1404 5.95195 15.6305C6.61187 16.1206 7.40857 16.3919 8.23044 16.4066C6.8342 17.5029 5.10965 18.0975 3.33444 18.0946C3.02162 18.0959 2.70903 18.0778 2.39844 18.0406C4.20038 19.1898 6.29322 19.8001 8.43044 19.7996Z" fill="black"/>
</g>
</svg>
