<svg width="32" height="32" viewBox="0 0 32 32" fill="none" xmlns="http://www.w3.org/2000/svg">
<g id="Safe">
<g id="Vector">
<path d="M28.4993 9.66133V24.6668H24.666V27.5417H22.666V24.6668H9.3332V27.5417H7.3332V24.6668H3.5003L3.50002 14.1376C3.49999 9.84425 3.49999 5.53024 3.50011 5.45741L3.50178 4.46007L4.49912 4.45908C4.69056 4.4589 15.992 4.45902 22.3996 4.45909V6.45909C17.0918 6.45903 8.42639 6.45894 5.50003 6.45901L5.50011 22.6668H26.4993V9.66133H28.4993Z" fill="black"/>
<path d="M20.791 15.042C20.791 16.1004 19.933 16.9585 18.8746 16.9586V15.0418H16.9578C16.9579 13.9834 17.816 13.1254 18.8744 13.1254C19.9329 13.1254 20.791 13.9835 20.791 15.042Z" fill="black"/>
<path d="M18.8747 11.2504C16.7807 11.2504 15.0833 12.9479 15.0832 15.0418H13.0832C13.0833 11.8433 15.6762 9.25039 18.8747 9.25039C22.0733 9.25039 24.6662 11.8433 24.6662 15.0419C24.6662 18.2405 22.0733 20.8334 18.8747 20.8334L18.8746 18.8334C20.9686 18.8334 22.6662 17.1359 22.6662 15.0419C22.6662 12.9479 20.9687 11.2504 18.8747 11.2504Z" fill="black"/>
</g>
</g>
</svg>
