<svg width="32" height="32" viewBox="0 0 32 32" fill="none" xmlns="http://www.w3.org/2000/svg">
<g id="shield-check-r">
<path id="Subtract" fill-rule="evenodd" clip-rule="evenodd" d="M16 2.91211L20.8028 4.97047L26.3333 4.1804V13.6557L24.3333 14.3544V6.48642L20.5304 7.02968L16 5.08804L11.4695 7.02968L7.66663 6.48642V15.8665C7.66663 19.7089 9.73319 23.2543 13.0766 25.1479L16.0789 26.8483L18.9946 25.1672C20.9571 24.0356 22.4721 22.3329 23.3786 20.3374L25.824 19.4831C24.9204 22.5708 22.8586 25.2479 19.9936 26.8998L16.0877 29.1518L12.0909 26.8882C8.12067 24.6395 5.66663 20.4293 5.66663 15.8665V4.1804L11.1971 4.97047L16 2.91211ZM21.8808 12.7022L14.4829 20.079L10.1191 15.7277L11.5313 14.3114L14.4829 17.2546L20.4686 11.2859L21.8808 12.7022Z" fill="black"/>
</g>
</svg>
