<svg width="32" height="32" viewBox="0 0 32 32" fill="none" xmlns="http://www.w3.org/2000/svg">
<g id="Storefront">
<path id="Vector" fill-rule="evenodd" clip-rule="evenodd" d="M19.8091 4.8999H6.02211L3.46655 14.0999H3.47048C3.47073 15.9614 4.37523 17.6546 5.78219 18.6227V27.0999H25.9822V18.7635C27.5225 17.8265 28.5315 16.0604 28.5318 14.0999H28.5334L27.4594 10.5851H25.3681L25.831 12.0999H6.09784L7.54228 6.8999H19.8091V4.8999ZM23.4631 19.4694C23.6387 19.4694 23.8119 19.4601 23.9822 19.442V25.0999H7.78219V19.4162C8.01536 19.4513 8.25441 19.4694 8.4984 19.4694C10.0428 19.4694 11.3889 18.7414 12.2986 17.6154C13.1975 18.7279 14.4871 19.47 15.982 19.47C17.4677 19.47 18.7507 18.7369 19.6488 17.6358C20.5672 18.7514 21.919 19.4694 23.4631 19.4694ZM18.5941 15.5909C18.4638 15.1149 18.3944 14.6141 18.3943 14.0999H13.5263C13.5263 14.5933 13.4627 15.0748 13.3431 15.5342C13.9184 16.7707 14.9388 17.47 15.982 17.47C17.0091 17.47 18.0142 16.7921 18.5941 15.5909ZM23.4631 17.4694C21.8346 17.4694 20.3947 16.0294 20.3943 14.0999H26.5318C26.5314 16.0294 25.0915 17.4694 23.4631 17.4694ZM5.47047 14.0999C5.47086 16.0393 6.90158 17.4694 8.4984 17.4694C10.0952 17.4694 11.526 16.0393 11.5263 14.0999H5.47047Z" fill="black"/>
</g>
</svg>
