<svg width="16" height="16" viewBox="0 0 16 16" fill="none" xmlns="http://www.w3.org/2000/svg">
<g id="alarm-r">
<g id="vector">
<path d="M4.69879 2.07778L2.25416 4.03637L1.62891 3.25595L4.07354 1.29736L4.69879 2.07778Z" fill="#FFE818"/>
<path d="M8.4984 8.16686H11.1651V9.16686H7.4984L7.4984 5.5002H8.4984L8.4984 8.16686Z" fill="#FFE818"/>
<path fill-rule="evenodd" clip-rule="evenodd" d="M2.16507 8.66686C2.16507 5.4452 4.77674 2.83353 7.9984 2.83353C11.2201 2.83353 13.8317 5.4452 13.8317 8.66686C13.8317 11.8885 11.2201 14.5002 7.9984 14.5002C4.77674 14.5002 2.16507 11.8885 2.16507 8.66686ZM7.9984 3.83353C5.32903 3.83353 3.16507 5.99749 3.16507 8.66686C3.16507 11.3362 5.32903 13.5002 7.9984 13.5002C10.6678 13.5002 12.8317 11.3362 12.8317 8.66686C12.8317 5.99749 10.6678 3.83353 7.9984 3.83353Z" fill="#FFE818"/>
<path d="M13.7402 4.03637L11.2956 2.07778L11.9208 1.29736L14.3654 3.25595L13.7402 4.03637Z" fill="#FFE818"/>
</g>
</g>
</svg>
