<svg width="32" height="32" viewBox="0 0 32 32" fill="none" xmlns="http://www.w3.org/2000/svg">
<g id="gear-alt-r">
<path id="Subtract" fill-rule="evenodd" clip-rule="evenodd" d="M16.0002 2.58594L19.9291 6.51487H25.4854V8.43757L23.4854 9.5852V8.51487H19.1007L16.0002 5.41436L12.8997 8.51487H8.51486V12.8997L5.41436 16.0002L8.51486 19.1007V23.4854H12.8996L16.0002 26.5859L19.1007 23.4854H23.4854V19.1007L26.5859 16.0002L24.8051 14.2194L26.6023 13.1881L29.4144 16.0002L25.4854 19.9291V25.4854H19.9291L16.0002 29.4144L12.0712 25.4854H6.51486V19.9291L2.58594 16.0002L6.51486 12.0712V6.51487H12.0712L16.0002 2.58594ZM11.6668 16.0001C11.6668 13.6069 13.6069 11.6668 16.0001 11.6668C18.3934 11.6668 20.3335 13.6069 20.3335 16.0001C20.3335 18.3934 18.3934 20.3335 16.0001 20.3335C13.6069 20.3335 11.6668 18.3934 11.6668 16.0001ZM16.0001 13.6668C14.7115 13.6668 13.6668 14.7115 13.6668 16.0001C13.6668 17.2888 14.7115 18.3335 16.0001 18.3335C17.2888 18.3335 18.3335 17.2888 18.3335 16.0001C18.3335 14.7115 17.2888 13.6668 16.0001 13.6668Z" fill="black"/>
</g>
</svg>
