<svg width="32" height="32" viewBox="0 0 32 32" fill="none" xmlns="http://www.w3.org/2000/svg">
<g id="shield-check-r">
<path id="Subtract" fill-rule="evenodd" clip-rule="evenodd" d="M16.0001 2.91211L20.8029 4.97047L26.3334 4.1804V13.6557L24.3334 14.3544V6.48642L20.5306 7.02968L16.0001 5.08804L11.4696 7.02968L7.66675 6.48642V15.8665C7.66675 19.7089 9.73331 23.2543 13.0767 25.1479L16.079 26.8483L18.9947 25.1672C20.9572 24.0356 22.4722 22.3329 23.3787 20.3374L25.8241 19.4831C24.9206 22.5708 22.8587 25.2479 19.9937 26.8998L16.0878 29.1518L12.0911 26.8882C8.12079 24.6395 5.66675 20.4293 5.66675 15.8665V4.1804L11.1972 4.97047L16.0001 2.91211Z" fill="black"/>
</g>
</svg>
