<svg width="32" height="32" viewBox="0 0 32 32" fill="none" xmlns="http://www.w3.org/2000/svg">
<g id="sun-r">
<g id="Subtract">
<path d="M15 26.6667V29H17V26.6667H15Z" fill="black"/>
<path d="M15 3V5.33333H17V3L15 3Z" fill="black"/>
<path fill-rule="evenodd" clip-rule="evenodd" d="M8.33333 16C8.33333 11.7658 11.7658 8.33333 16 8.33333C20.2342 8.33333 23.6667 11.7658 23.6667 16C23.6667 20.2342 20.2342 23.6667 16 23.6667C11.7658 23.6667 8.33333 20.2342 8.33333 16ZM16 10.3333C12.8704 10.3333 10.3333 12.8704 10.3333 16C10.3333 19.1296 12.8704 21.6667 16 21.6667C19.1296 21.6667 21.6667 19.1296 21.6667 16C21.6667 12.8704 19.1296 10.3333 16 10.3333Z" fill="black"/>
<path d="M3 15H5.33333V17H3V15Z" fill="black"/>
<path d="M26.6667 15H29V17H26.6667V15Z" fill="black"/>
<path d="M7.51471 6.10052L9.16463 7.75044L7.75042 9.16465L6.1005 7.51473L7.51471 6.10052Z" fill="black"/>
<path d="M24.2496 22.8354L25.8995 24.4853L24.4853 25.8995L22.8354 24.2496L24.2496 22.8354Z" fill="black"/>
<path d="M7.75044 22.8354L6.10052 24.4853L7.51473 25.8995L9.16465 24.2496L7.75044 22.8354Z" fill="black"/>
<path d="M24.4853 6.10051L22.8354 7.75043L24.2496 9.16464L25.8995 7.51472L24.4853 6.10051Z" fill="black"/>
</g>
</g>
</svg>
