<svg width="24" height="25" viewBox="0 0 24 25" fill="none" xmlns="http://www.w3.org/2000/svg">
<g id="Social">
<path id="Vector" d="M11.9995 2.96704C9.28551 2.96704 8.94451 2.98004 7.87851 3.02704C6.81251 3.07704 6.08551 3.24404 5.44951 3.49204C4.78219 3.74316 4.17777 4.13701 3.67851 4.64604C3.1698 5.14557 2.77601 5.74991 2.52451 6.41704C2.27651 7.05204 2.10851 7.77904 2.05951 8.84204C2.01251 9.91104 1.99951 10.251 1.99951 12.968C1.99951 15.683 2.01251 16.023 2.05951 17.089C2.10951 18.155 2.27651 18.881 2.52451 19.517C2.77604 20.1842 3.16983 20.7885 3.67851 21.288C4.17715 21.7974 4.78132 22.1913 5.44851 22.442C6.08551 22.689 6.81051 22.858 7.87551 22.907C8.94351 22.954 9.28351 22.967 11.9995 22.967C14.7155 22.967 15.0545 22.955 16.1215 22.907C17.1855 22.857 17.9145 22.689 18.5515 22.442C19.2185 22.1909 19.8226 21.797 20.3215 21.288C20.8298 20.7884 21.2233 20.1841 21.4745 19.517C21.7205 18.881 21.8895 18.154 21.9395 17.089C21.9865 16.023 21.9995 15.683 21.9995 12.967C21.9995 10.251 21.9875 9.91104 21.9395 8.84304C21.8895 7.77904 21.7205 7.05204 21.4745 6.41704C21.2231 5.74988 20.8293 5.14553 20.3205 4.64604C19.8214 4.13681 19.2169 3.74293 18.5495 3.49204C17.9125 3.24404 17.1845 3.07604 16.1205 3.02704C15.0535 2.98004 14.7145 2.96704 11.9975 2.96704H11.9995ZM11.1035 4.77004H11.9995C14.6695 4.77004 14.9865 4.77804 16.0395 4.82704C17.0145 4.87104 17.5445 5.03504 17.8975 5.17104C18.3635 5.35204 18.6975 5.57004 19.0475 5.91904C19.3975 6.26904 19.6135 6.60204 19.7945 7.06904C19.9325 7.42104 20.0945 7.95104 20.1385 8.92604C20.1875 9.97904 20.1975 10.296 20.1975 12.965C20.1975 15.633 20.1875 15.951 20.1385 17.005C20.0945 17.979 19.9315 18.508 19.7945 18.861C19.6344 19.2952 19.3787 19.6879 19.0465 20.01C18.724 20.342 18.331 20.5973 17.8965 20.757C17.5465 20.894 17.0165 21.057 16.0395 21.102C14.9865 21.149 14.6695 21.161 11.9995 21.161C9.32951 21.161 9.01251 21.15 7.95851 21.102C6.98351 21.057 6.45451 20.894 6.10251 20.757C5.66817 20.5971 5.27521 20.3418 4.95251 20.01C4.6197 19.6876 4.36342 19.2946 4.20251 18.86C4.06651 18.508 3.90251 17.978 3.85851 17.003C3.81151 15.949 3.80151 15.633 3.80151 12.962C3.80151 10.292 3.81151 9.97704 3.85851 8.92304C3.90351 7.94804 4.06651 7.41804 4.20351 7.06604C4.38451 6.60004 4.60251 6.26604 4.95251 5.91604C5.27496 5.58369 5.66797 5.32806 6.10251 5.16804C6.45451 5.03104 6.98351 4.86804 7.95851 4.82304C8.88151 4.78104 9.23851 4.76804 11.1025 4.76704V4.77004H11.1035ZM17.3385 6.43004C17.0203 6.43004 16.715 6.55647 16.49 6.78151C16.2649 7.00656 16.1385 7.31178 16.1385 7.63004C16.1385 7.9483 16.2649 8.25353 16.49 8.47857C16.715 8.70361 17.0203 8.83004 17.3385 8.83004C17.6568 8.83004 17.962 8.70361 18.187 8.47857C18.4121 8.25353 18.5385 7.9483 18.5385 7.63004C18.5385 7.31178 18.4121 7.00656 18.187 6.78151C17.962 6.55647 17.6568 6.43004 17.3385 6.43004ZM11.9995 7.83204C10.6374 7.81082 9.32257 8.33159 8.34438 9.27977C7.36619 10.228 6.80473 11.5259 6.78351 12.888C6.76229 14.2502 7.28306 15.565 8.23124 16.5432C9.17943 17.5214 10.4774 18.0828 11.8395 18.104C13.2017 18.1253 14.5165 17.6045 15.4946 16.6563C16.4728 15.7081 17.0343 14.4102 17.0555 13.048C17.0767 11.6859 16.556 10.3711 15.6078 9.39291C14.6596 8.41472 13.3617 7.85326 11.9995 7.83204ZM11.9995 9.63304C12.4373 9.63304 12.8709 9.71928 13.2754 9.88683C13.6799 10.0544 14.0474 10.3 14.357 10.6095C14.6666 10.9191 14.9122 11.2867 15.0797 11.6912C15.2473 12.0957 15.3335 12.5292 15.3335 12.967C15.3335 13.4049 15.2473 13.8384 15.0797 14.2429C14.9122 14.6474 14.6666 15.0149 14.357 15.3245C14.0474 15.6341 13.6799 15.8797 13.2754 16.0473C12.8709 16.2148 12.4373 16.301 11.9995 16.301C11.1153 16.301 10.2673 15.9498 9.64202 15.3245C9.01677 14.6993 8.66551 13.8513 8.66551 12.967C8.66551 12.0828 9.01677 11.2348 9.64202 10.6095C10.2673 9.9843 11.1153 9.63304 11.9995 9.63304Z" fill="white"/>
</g>
</svg>
