<svg width="24" height="25" viewBox="0 0 24 25" fill="none" xmlns="http://www.w3.org/2000/svg">
<g id="IN">
<path id="Subtract" fill-rule="evenodd" clip-rule="evenodd" d="M7.06843 21.6575V10.0048H3.19494V21.6575H7.06843ZM7.32262 6.40228C7.32262 7.52097 6.48263 8.41515 5.13297 8.41515H5.10717C3.80654 8.41515 2.96655 7.52097 2.96655 6.40228C2.96655 5.25907 3.83106 4.38812 5.15878 4.38941C6.48392 4.38941 7.29939 5.25778 7.32262 6.40228ZM13.049 15.1531V21.6575H9.17807C9.17807 21.6575 9.22581 11.099 9.17807 10.0048H13.049V11.6564L13.0232 11.6964H13.049V11.6564C13.5651 10.8616 14.4864 9.73126 16.5405 9.73126C19.0889 9.73126 20.9985 11.3958 20.9985 14.9776V21.6614H17.1263V15.4267C17.1263 13.8589 16.5664 12.7919 15.1651 12.7919C14.0941 12.7919 13.4567 13.5131 13.178 14.2073C13.0748 14.4564 13.049 14.8047 13.049 15.1531Z" fill="white"/>
</g>
</svg>
