<svg width="163" height="38" viewBox="0 0 163 38" fill="none" xmlns="http://www.w3.org/2000/svg">
<g id="Talius Logo  Colored Black">
<path id="Vector" d="M72.1335 5.88794V25.2679H83.3889V30.4812H66.3159V5.88794H72.1335Z" fill="white"/>
<path id="Vector_2" d="M98.4299 30.4812H92.5952V5.88794H98.4299V30.4812Z" fill="white"/>
<path id="Vector_3" d="M121.129 31.0363C117.919 31.0363 115.328 30.1823 113.395 28.4446C111.427 26.7879 110.458 24.3329 110.458 21.1221V5.88794H116.297V21.1904C116.297 22.7787 116.724 23.9529 117.539 24.7812C118.354 25.6095 119.575 25.9895 121.129 25.9895C122.682 25.9895 123.856 25.6181 124.718 24.7641C125.58 23.9102 125.999 22.7616 125.999 21.1733V5.88794H131.833V21.1221C131.833 24.2987 130.864 26.7154 128.965 28.4446C127.066 30.1738 124.445 31.0363 121.129 31.0363Z" fill="white"/>
<path id="Vector_4" d="M152.56 31.0361C149.107 31.0361 146.486 30.2761 144.621 28.7561C142.756 27.2361 141.787 25.1269 141.787 22.3986H147.451C147.451 23.9186 147.899 24.9903 148.761 25.5752C149.623 26.1602 150.972 26.4719 152.769 26.4719C155.53 26.4719 156.947 25.5368 156.947 23.6368C156.968 23.2766 156.893 22.9173 156.728 22.5961C156.564 22.2748 156.317 22.0033 156.013 21.8094C155.394 21.3824 154.254 21.0494 152.526 20.7036L150.524 20.3236C145.035 19.4227 142.307 16.8352 142.307 12.6382C142.272 11.6181 142.478 10.6041 142.91 9.6793C143.342 8.75452 143.986 7.94534 144.791 7.31817C146.448 6.00311 148.833 5.34985 151.907 5.34985C155.15 5.34985 157.673 6.04154 159.397 7.42064C161.122 8.79974 162.022 10.8065 162.159 13.364H156.644C156.649 12.8643 156.543 12.3698 156.334 11.9159C156.125 11.4619 155.819 11.0597 155.436 10.7382C154.711 10.1831 153.571 9.90985 152.022 9.90985C149.499 9.90985 148.257 10.7382 148.257 12.3948C148.23 12.7619 148.299 13.1298 148.456 13.4627C148.613 13.7956 148.853 14.0823 149.154 14.2948C149.777 14.7218 150.861 15.1231 152.436 15.4006L154.506 15.7806C157.494 16.3314 159.628 17.1982 160.964 18.3723C162.3 19.5465 163 21.2031 163 23.2739C163 25.7973 162.069 27.7314 160.238 29.0422C158.407 30.353 155.791 31.0361 152.56 31.0361Z" fill="white"/>
<path id="Vector_5" d="M61.6845 38L37.5987 21.8436L33.2921 30.4043H26.4629L42.1103 0L61.6845 38ZM42.1103 12.9413L37.7823 21.5063H46.434L42.1103 12.9413Z" fill="#FA4717"/>
<path id="Vector_6" d="M0 5.88794H20.9614V11.1012H13.398V30.4812H7.52918V11.1012H0V5.88794Z" fill="white"/>
</g>
</svg>
