<svg width="24" height="25" viewBox="0 0 24 25" fill="none" xmlns="http://www.w3.org/2000/svg">
<g id="TW">
<path id="Vector" d="M8.43044 20.7664C15.6754 20.7664 19.6394 14.7614 19.6394 9.56436C19.6394 9.39636 19.6394 9.22636 19.6324 9.05836C20.4039 8.49947 21.0696 7.80767 21.5984 7.01536C20.8779 7.33323 20.1143 7.54283 19.3324 7.63736C20.1561 7.14496 20.7729 6.37031 21.0684 5.45736C20.2942 5.91575 19.4468 6.23745 18.5634 6.40836C17.9697 5.77588 17.1839 5.35686 16.3279 5.21623C15.4719 5.07559 14.5933 5.22119 13.8285 5.63046C13.0636 6.03973 12.455 6.68983 12.097 7.48004C11.7391 8.27025 11.6517 9.15646 11.8484 10.0014C10.2822 9.92274 8.74994 9.51578 7.35108 8.80688C5.95222 8.09797 4.718 7.10296 3.72844 5.88636C3.22595 6.75417 3.07262 7.78071 3.29959 8.75748C3.52655 9.73425 4.1168 10.588 4.95044 11.1454C4.32559 11.1241 3.71449 10.9562 3.16644 10.6554V10.7094C3.16753 11.6185 3.48249 12.4993 4.05808 13.203C4.63368 13.9067 5.43459 14.39 6.32544 14.5714C5.74661 14.7283 5.13971 14.7519 4.55044 14.6404C4.80198 15.4229 5.29204 16.1072 5.95195 16.5973C6.61187 17.0874 7.40857 17.3587 8.23044 17.3734C6.8342 18.4697 5.10965 19.0642 3.33444 19.0614C3.02162 19.0627 2.70903 19.0446 2.39844 19.0074C4.20038 20.1566 6.29322 20.7669 8.43044 20.7664Z" fill="white"/>
</g>
</svg>
