<svg width="32" height="32" viewBox="0 0 32 32" fill="none" xmlns="http://www.w3.org/2000/svg">
<g id="eye-r">
<path id="Subtract" fill-rule="evenodd" clip-rule="evenodd" d="M22.1193 7.15192C20.4591 6.25838 18.438 5.6665 16.001 5.6665C10.9465 5.6665 7.68122 8.21243 5.71464 10.7153C4.73617 11.9607 4.07219 13.2013 3.65235 14.1293C3.44187 14.5946 3.2912 14.9848 3.19202 15.2625C3.1424 15.4014 3.10556 15.5125 3.08049 15.5911C3.06795 15.6304 3.05835 15.6616 3.05155 15.6841L3.04343 15.7113L3.04236 15.715L3.04092 15.7199L3.04005 15.7229L3.03971 15.7241C3.03956 15.7246 3.03943 15.7251 4.00095 15.9998L3.03943 15.7251L2.96094 15.9998L3.03943 16.2746L4.00095 15.9998C3.03943 16.2746 3.03956 16.275 3.03971 16.2755L3.04005 16.2767L3.04092 16.2798L3.04343 16.2884L3.05155 16.3156C3.05835 16.3381 3.06795 16.3693 3.08049 16.4086C3.10556 16.4872 3.1424 16.5983 3.19202 16.7372C3.2912 17.0149 3.44187 17.4051 3.65235 17.8703C4.07219 18.7984 4.73617 20.039 5.71464 21.2843C7.68122 23.7872 10.9465 26.3332 16.001 26.3332C21.0554 26.3332 24.3207 23.7872 26.2873 21.2843C27.2657 20.039 27.9297 18.7984 28.3496 17.8703C28.56 17.4051 28.7107 17.0149 28.8099 16.7372C28.8595 16.5983 28.8963 16.4872 28.9214 16.4086C28.934 16.3693 28.9436 16.3381 28.9504 16.3156L28.9585 16.2884L28.961 16.2798L28.9619 16.2767L28.9622 16.2755C28.9623 16.275 28.9625 16.2746 28.001 15.9998L28.9625 16.2746L29.041 15.9998L28.9625 15.7251L28.001 15.9998C28.9625 15.7251 28.9623 15.7246 28.9622 15.7241L28.9619 15.7229L28.961 15.7199L28.9585 15.7113L28.9504 15.6841C28.9436 15.6616 28.934 15.6304 28.9214 15.5911C28.8963 15.5125 28.8595 15.4014 28.8099 15.2625C28.7107 14.9848 28.56 14.5946 28.3496 14.1293C27.9528 13.2522 27.3379 12.096 26.4456 10.9204L24.6376 11.8539C24.6635 11.8863 24.6892 11.9186 24.7146 11.951C25.5695 13.039 26.1555 14.1317 26.5273 14.9537C26.7127 15.3634 26.8433 15.7024 26.9264 15.9351L26.9493 15.9998L26.9264 16.0645C26.8433 16.2973 26.7127 16.6363 26.5273 17.046C26.1555 17.8679 25.5695 18.9607 24.7146 20.0487C23.0145 22.2124 20.2799 24.3332 16.001 24.3332C11.7221 24.3332 8.98736 22.2124 7.28727 20.0487C6.4324 18.9607 5.84639 17.8679 5.47456 17.046C5.28921 16.6363 5.15862 16.2973 5.07551 16.0645L5.05265 15.9998L5.07551 15.9351C5.15862 15.7024 5.28921 15.3634 5.47456 14.9537C5.84639 14.1317 6.4324 13.039 7.28727 11.951C8.98736 9.78725 11.7221 7.6665 16.001 7.6665C17.4574 7.6665 18.7349 7.91221 19.8537 8.32167L22.1193 7.15192ZM11.6676 15.9998C11.6676 13.6066 13.6077 11.6665 16.001 11.6665C18.3942 11.6665 20.3343 13.6066 20.3343 15.9998C20.3343 18.3931 18.3942 20.3332 16.001 20.3332C13.6077 20.3332 11.6676 18.3931 11.6676 15.9998ZM16.001 13.6665C14.7123 13.6665 13.6676 14.7112 13.6676 15.9998C13.6676 17.2885 14.7123 18.3332 16.001 18.3332C17.2896 18.3332 18.3343 17.2885 18.3343 15.9998C18.3343 14.7112 17.2896 13.6665 16.001 13.6665Z" fill="black"/>
</g>
</svg>
