<svg width="32" height="32" viewBox="0 0 32 32" fill="none" xmlns="http://www.w3.org/2000/svg">
<g id="shield-check-r">
<path id="Subtract" fill-rule="evenodd" clip-rule="evenodd" d="M15.9974 2.91211L20.8002 4.97047L26.3307 4.1804V13.6559L24.3307 14.3546V6.48642L20.5279 7.02968L15.9974 5.08804L11.4669 7.02968L7.66406 6.48642V15.8665C7.66406 19.7089 9.73063 23.2543 13.074 25.1479L16.0763 26.8483L18.992 25.1672C20.9544 24.0357 22.4694 22.333 23.3759 20.3377L25.8214 19.4833C24.9178 22.5709 22.856 25.248 19.991 26.8998L16.0852 29.1518L12.0884 26.8882C8.11811 24.6395 5.66406 20.4293 5.66406 15.8665V4.1804L11.1946 4.97047L15.9974 2.91211Z" fill="black"/>
</g>
</svg>
