<svg width="32" height="32" viewBox="0 0 32 32" fill="none" xmlns="http://www.w3.org/2000/svg">
<g id="user-r">
<g id="vector">
<path fill-rule="evenodd" clip-rule="evenodd" d="M15.9974 3C12.8678 3 10.3307 5.53705 10.3307 8.66667C10.3307 11.7963 12.8678 14.3333 15.9974 14.3333C19.127 14.3333 21.6641 11.7963 21.6641 8.66667C21.6641 5.53705 19.127 3 15.9974 3ZM12.3307 8.66667C12.3307 6.64162 13.9724 5 15.9974 5C18.0224 5 19.6641 6.64162 19.6641 8.66667C19.6641 10.6917 18.0224 12.3333 15.9974 12.3333C13.9724 12.3333 12.3307 10.6917 12.3307 8.66667Z" fill="black"/>
<path fill-rule="evenodd" clip-rule="evenodd" d="M15.9974 17C10.2905 17 5.66406 21.6264 5.66406 27.3333V29H26.3307V27.3333C26.3307 21.6264 21.7043 17 15.9974 17ZM15.9974 19C20.4881 19 24.1492 22.5522 24.3242 27H7.67061C7.84558 22.5522 11.5067 19 15.9974 19Z" fill="black"/>
</g>
</g>
</svg>
