<svg width="20" height="20" viewBox="0 0 20 20" fill="none" xmlns="http://www.w3.org/2000/svg">
<g id="Frame">
<path id="Vector" d="M17.734 7.95244C17.8565 7.85507 18.0386 7.94616 18.0386 8.10006V14.5233C18.0386 15.3556 17.3633 16.0309 16.531 16.0309H3.46468C2.63233 16.0309 1.95703 15.3556 1.95703 14.5233V8.1032C1.95703 7.94616 2.13606 7.85821 2.2617 7.95558C2.96527 8.5021 3.89813 9.19625 7.10189 11.5237C7.76463 12.0074 8.8828 13.0251 9.99784 13.0188C11.1192 13.0282 12.2593 11.9885 12.8969 11.5237C16.1007 9.19625 17.0304 8.49896 17.734 7.95244ZM9.99784 12.0105C10.7265 12.0231 11.7756 11.0934 12.3033 10.7102C16.4713 7.68546 16.7886 7.42162 17.7497 6.66779C17.9319 6.52645 18.0386 6.30659 18.0386 6.07416V5.47738C18.0386 4.64503 17.3633 3.96973 16.531 3.96973H3.46468C2.63233 3.96973 1.95703 4.64503 1.95703 5.47738V6.07416C1.95703 6.30659 2.06382 6.52331 2.246 6.66779C3.20713 7.41848 3.52436 7.68546 7.69239 10.7102C8.22007 11.0934 9.26914 12.0231 9.99784 12.0105Z" fill="white"/>
</g>
</svg>
