<svg width="24" height="24" viewBox="0 0 24 24" fill="none" xmlns="http://www.w3.org/2000/svg">
<g id="Phone">
<path id="Vector" d="M12 2C9.87901 2.00236 7.84557 2.83096 6.3458 4.304C4.84603 5.77705 4.00241 7.77425 4 9.85745C4 16.5809 11.2727 21.6615 11.5818 21.8758C11.7057 21.9568 11.8512 22 12 22C12.1488 22 12.2943 21.9568 12.4182 21.8758C12.7273 21.6615 20 16.5809 20 9.85745C19.9976 7.77425 19.154 5.77705 17.6542 4.304C16.1544 2.83096 14.121 2.00236 12 2ZM12 7.00019C12.5754 7.00019 13.1378 7.16777 13.6162 7.48173C14.0946 7.79569 14.4675 8.24193 14.6876 8.76402C14.9078 9.28612 14.9654 9.86062 14.8532 10.4149C14.7409 10.9691 14.4639 11.4782 14.057 11.8778C13.6502 12.2774 13.1318 12.5496 12.5675 12.6598C12.0032 12.77 11.4183 12.7135 10.8867 12.4972C10.3552 12.2809 9.90083 11.9147 9.58118 11.4449C9.26152 10.975 9.09091 10.4226 9.09091 9.85745C9.09091 9.09966 9.3974 8.3729 9.94296 7.83706C10.4885 7.30123 11.2285 7.00019 12 7.00019Z" fill="#8E939C"/>
</g>
</svg>
