<svg width="24" height="24" viewBox="0 0 24 24" fill="none" xmlns="http://www.w3.org/2000/svg">
<g id="Phone">
<path id="Vector" d="M20.8125 14.8492L16.4156 12.9742C16.1888 12.8725 15.9397 12.8303 15.692 12.8516C15.4443 12.8729 15.2061 12.9571 15 13.096L12.6469 14.6617C11.2127 13.9651 10.0516 12.8106 9.34687 11.3804L10.9031 8.99915C11.0412 8.79279 11.1255 8.55521 11.1484 8.308C11.1713 8.06078 11.1321 7.81175 11.0344 7.58353L9.15 3.18665C9.01851 2.88976 8.79586 2.64247 8.51435 2.48064C8.23284 2.31882 7.90711 2.25087 7.58437 2.28665C6.31837 2.4525 5.15566 3.07244 4.31243 4.03121C3.46919 4.98998 3.00281 6.22233 3 7.49915C3 14.9429 9.05625 20.9992 16.5 20.9992C17.7768 20.9963 19.0092 20.53 19.9679 19.6867C20.9267 18.8435 21.5467 17.6808 21.7125 16.4148C21.7483 16.092 21.6803 15.7663 21.5185 15.4848C21.3567 15.2033 21.1094 14.9806 20.8125 14.8492Z" fill="#8E939C"/>
</g>
</svg>
