<svg width="135" height="28" viewBox="0 0 135 28" fill="none" xmlns="http://www.w3.org/2000/svg">
<g id="Logo/Facebook">
<path id="Vector" d="M8.53318 26.8486H3.45759V13.9564H0V9.75897H3.45745V6.77219C3.45745 3.23285 4.98669 0.694458 10.0485 0.694458C11.1191 0.694458 12.7999 0.914329 12.7999 0.914329V4.81188H11.0345C9.23577 4.81188 8.53345 5.36938 8.53345 6.91067V9.75897H12.7326L12.3586 13.9564H8.53332L8.53318 26.8486ZM20.1793 9.42354C20.1053 9.42354 20.0292 9.42628 19.9539 9.42821C15.2475 9.42821 13.0942 13.0353 13.0942 18.1558C13.0942 24.6061 15.8873 27.1878 19.9907 27.1878C22.3384 27.1878 23.8808 26.1809 24.8183 24.302V26.8504H29.6459V9.76076H24.8183V12.3889C24.0528 10.698 22.4673 9.44358 20.1793 9.42354ZM21.4068 13.4618C23.3835 13.4618 24.5699 14.8666 24.5699 17.2563L24.5745 19.6969C24.5745 21.3075 23.5946 23.1918 21.4068 23.1918C18.0433 23.1918 18.1332 19.4913 18.1332 18.2589C18.1332 14.113 19.9252 13.4618 21.4068 13.4618ZM31.5955 18.3065C31.5955 16.2298 31.498 9.43466 40.1866 9.43466C43.6744 9.43466 45.1308 10.5646 45.1308 10.5646L43.9602 14.2638C43.9602 14.2638 42.5058 13.4478 40.6105 13.4478C38.1831 13.4478 36.6342 14.8816 36.6342 17.4043L36.6369 19.2133C36.6369 21.6373 38.1314 23.2555 40.6155 23.2555C42.3421 23.2555 43.9334 22.4317 43.9334 22.4317L45.101 26.0537C45.101 26.0537 43.7694 27.1908 40.211 27.1908C31.9381 27.1908 31.5957 21.0942 31.5957 18.3065H31.5955ZM73.4368 9.42821C78.1433 9.42821 80.3306 13.0353 80.3306 18.1558C80.3306 24.6061 77.5373 27.1878 73.434 27.1878C71.0863 27.1878 69.3509 26.1811 68.4134 24.302V26.8504L63.6465 26.8485V1.21408L68.7077 0.764317V12.1574C69.4382 10.1641 71.8388 9.42821 73.437 9.42821H73.4368ZM72.0179 13.4618C70.0412 13.4618 68.7077 14.8666 68.7077 17.2563L68.703 19.6969C68.7 21.3075 69.6265 23.1918 72.0179 23.1918C75.3813 23.1918 75.2915 19.4913 75.2915 18.2589C75.2915 14.113 73.4996 13.4618 72.0179 13.4618ZM53.9123 9.44234C48.5742 9.44234 45.756 12.4078 45.756 17.6779V18.657C45.756 25.497 49.7136 27.258 54.4319 27.258C59.018 27.258 61.0938 25.951 61.0938 25.951L60.1467 22.4704C60.1467 22.4704 57.7049 23.529 55.0387 23.529C52.2747 23.529 51.0859 22.8112 50.7813 20.1047H61.4985V17.3124C61.4985 11.5958 58.3356 9.4422 53.9122 9.4422L53.9123 9.44234ZM54.041 12.9276C55.8888 12.9276 57.0861 14.0821 57.0204 16.7597H50.7906C50.8986 13.9416 52.1898 12.9277 54.041 12.9277V12.9276ZM90.4224 9.41887C84.9405 9.41887 82.0546 12.5665 82.0546 18.2072C82.0546 25.9466 87.0293 27.1924 90.4315 27.1924C95.4122 27.1924 98.7258 24.4602 98.7258 18.2775C98.7258 11.8424 95 9.41887 90.4224 9.41887ZM90.3534 13.4758C92.7638 13.4758 93.719 15.3139 93.719 17.4063V19.2052C93.719 21.7399 92.3825 23.2059 90.3442 23.2059C88.438 23.2059 87.0983 21.8346 87.0983 19.2052V17.4063C87.0983 14.602 88.6924 13.4758 90.3534 13.4758ZM108.809 9.41887C103.327 9.41887 100.441 12.5665 100.441 18.2072C100.441 25.9466 105.415 27.1924 108.818 27.1924C113.798 27.1924 117.112 24.4602 117.112 18.2775C117.112 11.8424 113.386 9.41887 108.809 9.41887ZM108.74 13.4758C111.15 13.4758 112.105 15.3139 112.105 17.4063V19.2052C112.105 21.7399 110.769 23.2059 108.73 23.2059C106.824 23.2059 105.484 21.8346 105.484 19.2052V17.4063C105.484 14.602 107.079 13.4758 108.74 13.4758ZM119.024 26.8486V1.21408L124.1 0.764317V17.9462L129.136 9.75897H134.497L129.243 18.2385L134.699 26.8486H129.323L124.1 18.4883V26.8486H119.024Z" fill="#8E939C"/>
</g>
</svg>
