<svg width="121" height="40" viewBox="0 0 121 40" fill="none" xmlns="http://www.w3.org/2000/svg">
<g id="Logo/Google">
<path id="Vector" d="M14.7944 0H15.8627C19.5712 0.0821459 23.2193 1.60184 25.8395 4.29212C24.872 5.29841 23.8844 6.26362 22.9371 7.26991C21.4658 5.9145 19.6921 4.86714 17.7573 4.49749C14.8952 3.88139 11.8115 4.43588 9.41303 6.09933C6.79286 7.84493 5.01921 10.8022 4.63627 13.9648C4.21301 17.0863 5.07968 20.3722 7.07504 22.7955C8.98977 25.1572 11.9123 26.6358 14.9355 26.7385C17.7573 26.9028 20.6999 26.0197 22.7557 24.0071C24.3681 22.5901 25.1139 20.4338 25.3557 18.3391C22.01 18.3391 18.6642 18.3596 15.3185 18.3391V14.1086H29.4069C30.1325 18.6471 29.0844 23.7607 25.6984 27.0055C23.441 29.3055 20.317 30.6609 17.1324 30.9279C14.0487 31.236 10.8642 30.6404 8.1231 29.1207C4.83782 27.334 2.21765 24.3152 0.927722 20.7624C-0.281585 17.4971 -0.30174 13.8005 0.826947 10.5147C1.85486 7.51635 3.83006 4.86714 6.36961 3.01886C8.80838 1.19112 11.7712 0.184828 14.7944 0Z" fill="#8E939C"/>
<path id="Vector_2" d="M95.6172 1.06836H99.9313V30.3944C98.5 30.3944 97.0485 30.4149 95.6172 30.3738C95.6373 20.619 95.6172 10.8437 95.6172 1.06836Z" fill="#8E939C"/>
<path id="Vector_3" d="M38.9999 11.2336C41.6604 10.7202 44.5425 11.2952 46.7395 12.9175C48.7348 14.3551 50.1255 16.6141 50.5488 19.0784C51.093 21.933 50.4077 25.0545 48.5937 27.3135C46.6387 29.8395 43.434 31.1949 40.31 30.9895C37.4479 30.8252 34.6665 29.3671 32.9735 26.9849C31.0587 24.3563 30.5952 20.7419 31.6432 17.6614C32.6913 14.3551 35.6541 11.8291 38.9999 11.2336ZM39.6045 15.1355C38.5162 15.423 37.5084 16.0596 36.7828 16.9632C34.8278 19.3454 34.9487 23.2268 37.1053 25.4447C38.3348 26.7179 40.189 27.3135 41.9022 26.9644C43.4945 26.6769 44.8852 25.5884 45.6511 24.1509C46.9813 21.7071 46.5984 18.3391 44.5627 16.4292C43.2526 15.1971 41.3379 14.6837 39.6045 15.1355Z" fill="#8E939C"/>
<path id="Vector_4" d="M60.3627 11.2334C63.4061 10.6378 66.7317 11.5003 69.0092 13.6772C72.7178 17.0657 73.1209 23.4115 69.9565 27.3134C68.0418 29.7778 64.9379 31.1332 61.8743 30.9895C58.9518 30.9073 56.0696 29.4287 54.3363 26.9849C52.3812 24.2946 51.958 20.598 53.0665 17.4559C54.175 14.2522 57.0774 11.8084 60.3627 11.2334ZM60.9673 15.1353C59.879 15.4228 58.8712 16.0594 58.1456 16.9425C56.2107 19.2837 56.2913 23.1035 58.3673 25.3419C59.5968 26.6768 61.5115 27.334 63.2852 26.9643C64.8573 26.6563 66.2681 25.5884 67.034 24.1508C68.3441 21.6864 67.9612 18.3185 65.9053 16.4086C64.5953 15.1764 62.6805 14.6835 60.9673 15.1353Z" fill="#8E939C"/>
<path id="Vector_5" d="M78.4849 12.4248C80.8027 10.9461 83.8865 10.5354 86.3857 11.8087C87.1717 12.1578 87.8167 12.7533 88.4415 13.3489C88.4617 12.7944 88.4415 12.2194 88.4617 11.6444C89.8121 11.6649 91.1625 11.6444 92.533 11.6649V29.778C92.5129 32.5094 91.8276 35.405 89.8927 37.397C87.7764 39.5944 84.5314 40.2721 81.6089 39.8203C78.4849 39.348 75.7639 37.0274 74.5546 34.0907C75.7639 33.4951 77.0337 33.0228 78.2833 32.4683C78.9887 34.1523 80.4198 35.5898 82.2136 35.9184C84.0074 36.247 86.0834 35.7952 87.2524 34.2755C88.502 32.7147 88.502 30.579 88.4415 28.6691C87.5144 29.5932 86.4462 30.4147 85.1562 30.7227C82.3547 31.5236 79.2709 30.5379 77.1143 28.6075C74.9376 26.677 73.6476 23.6993 73.7686 20.742C73.829 17.3946 75.6833 14.1703 78.4849 12.4248ZM82.657 15.0534C81.4275 15.2588 80.2787 15.957 79.4926 16.9222C77.598 19.2223 77.598 22.8983 79.5128 25.1573C80.6012 26.4922 82.3547 27.2315 84.0477 27.0467C85.6399 26.8824 87.1113 25.8556 87.8973 24.4386C89.2276 22.0358 89.0059 18.7705 87.2121 16.6758C86.1035 15.382 84.3299 14.7454 82.657 15.0534Z" fill="#8E939C"/>
<path id="Vector_6" d="M105.107 13.472C107.525 11.1719 111.254 10.3915 114.358 11.6032C117.301 12.7327 119.175 15.5872 120.122 18.524C115.749 20.3722 111.395 22.2 107.021 24.0483C107.626 25.2188 108.553 26.2867 109.803 26.718C111.556 27.3546 113.652 27.1287 115.124 25.9376C115.708 25.4858 116.172 24.8903 116.615 24.3152C117.724 25.0751 118.832 25.8144 119.941 26.5742C118.369 28.977 115.728 30.661 112.887 30.928C109.742 31.3182 106.397 30.086 104.361 27.5805C101.015 23.6375 101.338 17.0248 105.107 13.472ZM107.263 17.2712C106.578 18.2775 106.296 19.5097 106.316 20.7214C109.239 19.4892 112.161 18.257 115.084 17.0043C114.6 15.8542 113.431 15.156 112.242 14.9712C110.327 14.622 108.332 15.6694 107.263 17.2712Z" fill="#8E939C"/>
</g>
</svg>
