<svg width="144" height="36" viewBox="0 0 144 36" fill="none" xmlns="http://www.w3.org/2000/svg">
<path id="Logo/Pinterest" d="M15.3921 0.544519C13.5381 0.756163 10.7571 1.6353 9.17475 2.51443C4.92329 4.84251 2.04636 8.47302 0.607901 13.3083C0.320208 14.2525 -0.0154333 16.8248 0.000549657 18.0295C0.000549657 19.0878 0.320208 21.6763 0.512003 22.295C0.607901 22.588 0.815679 23.2881 0.991491 23.8253C1.27918 24.737 2.6697 27.6024 2.90944 27.7977C2.95739 27.8466 3.21312 28.1722 3.45286 28.5466C4.04423 29.442 5.59458 31.0375 6.76133 31.9492C7.65637 32.6492 10.1817 34.1307 10.5013 34.147C10.5813 34.147 10.5972 33.5284 10.5493 32.7144C10.4374 30.9072 10.773 28.4489 11.4923 25.9418C11.6201 25.5185 11.716 24.9649 11.716 24.7207C11.716 24.4765 11.78 24.2161 11.8599 24.1347C11.9398 24.037 12.0836 23.5648 12.1636 23.0764C12.2595 22.588 12.4193 21.8391 12.5312 21.4158C12.691 20.7809 12.675 20.5367 12.4513 19.8529C12.1316 18.811 12.1156 17.1178 12.4353 16.3038C13.1865 14.3665 14.0176 13.6339 15.4241 13.6339C17.1183 13.6339 17.9334 14.9363 17.6137 17.1178C17.4699 18.1109 17.0703 19.6739 16.8146 20.1623C16.7507 20.3088 16.6388 20.7158 16.5908 21.0577C16.5269 21.4158 16.399 21.9205 16.3191 22.1973C16.0954 22.8322 16.5269 24.0695 17.1023 24.5417C17.6457 24.9812 18.7805 25.1115 19.8194 24.8673C20.5546 24.7045 20.8583 24.5091 21.6255 23.7602C22.5365 22.8485 23.2237 21.7903 23.2237 21.2856C23.2237 21.1391 23.3037 20.9437 23.3996 20.846C23.8471 20.3902 24.0868 16.8411 23.7512 15.3433C23.3836 13.699 22.2488 12.0872 20.7784 11.143C19.3079 10.1824 16.2712 9.90568 14.4012 10.5569C13.0906 11.0127 11.9238 11.7779 11.1726 12.6733C10.5013 13.4711 9.79809 14.7735 9.79809 15.2293C9.79809 15.3921 9.71817 15.6038 9.62228 15.7015C9.52638 15.7991 9.4145 16.4178 9.36655 17.0853C9.28663 18.0784 9.35056 18.5342 9.63826 19.5111C9.83005 20.1785 10.1817 20.96 10.3895 21.253C10.821 21.8391 10.821 22.0671 10.4214 23.63C10.3095 24.0533 10.1177 24.444 10.0059 24.4928C8.99894 24.8835 6.95313 22.4252 6.26586 19.9832C6.01013 19.0552 5.99415 15.7503 6.24988 14.7735C6.36176 14.3665 6.55355 13.813 6.68142 13.5199C6.80928 13.2431 6.92116 12.9664 6.92116 12.9013C6.92116 12.8361 7.24082 12.2826 7.64039 11.6802C9.71817 8.4893 13.0906 6.79615 17.358 6.79615C18.333 6.79615 19.3399 6.86127 19.6116 6.94267C21.8172 7.64272 22.4086 7.87065 23.2717 8.39162C24.9499 9.41727 26.1646 10.8174 27.3793 13.1617C27.4592 13.3083 27.5711 13.699 27.6191 14.0246C27.683 14.3502 27.7949 14.6595 27.8748 14.7084C27.9547 14.7572 28.0186 15.8154 28.0186 17.069C28.0186 19.332 27.8588 20.2437 27.1875 22.0996C26.4363 24.1347 24.5024 26.3813 22.7443 27.2605C21.7373 27.7489 19.8513 28.2861 19.1002 28.2861C18.0932 28.2861 16.1113 27.4396 15.5679 26.7558C15.3122 26.4465 15.0725 26.5604 15.0725 27C15.0725 27.1628 15.0085 27.4396 14.9126 27.6024C14.8327 27.7489 14.6889 28.2047 14.6089 28.6117C14.1454 30.7607 13.4901 32.5027 12.4832 34.1307C12.1795 34.6354 12.4353 34.9285 13.2664 35.0424C13.6819 35.1076 14.2413 35.2215 14.4971 35.3029C15.1364 35.5146 18.6047 35.482 19.7714 35.2704C20.8263 35.075 22.5365 34.5866 23.3037 34.261C28.1305 32.2422 31.7906 28.1396 33.3729 22.9136C34.22 20.1297 34.268 16.8899 33.5008 13.6339C33.245 12.5756 33.1651 12.3314 32.4779 10.7034C31.4869 8.3265 29.2493 5.54257 26.9797 3.83314C25.0298 2.36791 23.1119 1.52134 20.1231 0.788723C19.2919 0.59336 16.3351 0.430557 15.3921 0.544519ZM58.0186 6.4217C57.3953 6.51938 56.4043 7.56132 56.1486 8.37534C55.8769 9.27075 56.1486 10.2313 56.9158 10.9802C58.61 12.6571 61.5508 11.0779 61.1832 8.66838C60.9594 7.13803 59.5849 6.16122 58.0186 6.4217ZM40.5972 7.38224C40.4534 7.54504 40.4534 27.1791 40.6132 27.407C40.6931 27.5372 41.3804 27.5861 42.7229 27.5698L44.7208 27.5535L44.8007 24.2486C44.8646 21.5624 44.9286 20.9112 45.1204 20.7972C45.2482 20.7158 46.3351 20.6344 47.5338 20.6344C50.155 20.6344 51.2578 20.439 52.4565 19.7878C54.0229 18.925 54.9339 17.6877 55.4294 15.7177C55.733 14.4804 55.733 13.585 55.4134 12.3152C55.1257 11.1755 54.9978 10.8988 54.3105 9.9708C53.4635 8.8149 52.6004 8.17997 51.1939 7.67528C50.4107 7.4148 49.7554 7.36596 45.5199 7.31712C42.8828 7.28456 40.6611 7.31712 40.5972 7.38224ZM49.3718 11.436C50.4427 11.7779 50.9701 12.2663 51.2099 13.1455C51.5135 14.3014 51.2898 15.3759 50.6185 16.0271C49.8833 16.7271 49.228 16.8899 47.0863 16.8899C45.6798 16.8899 45.2482 16.8411 45.0564 16.6294C44.8487 16.4341 44.8007 15.9619 44.8007 14.106C44.8007 11.1755 44.7847 11.1918 47.0063 11.1918C47.9653 11.1918 48.8923 11.2895 49.3718 11.436ZM77.4059 10.4755C77.4059 11.5988 77.326 12.6571 77.2461 12.8361C77.1342 13.0478 76.9104 13.1455 76.5268 13.1455C76.2391 13.1455 75.9674 13.2106 75.9355 13.3083C75.9195 13.3897 75.9195 13.9595 75.9674 14.5618C76.0473 15.6363 76.0633 15.6526 76.5428 15.7666C76.8145 15.8154 77.1182 15.9131 77.2141 15.9782C77.3579 16.0596 77.4059 17.3458 77.4059 20.6018C77.4059 24.9812 77.4219 25.144 77.7735 25.7952C78.5087 27.1791 79.6595 27.6675 81.993 27.6024L83.5593 27.5535L83.6073 25.9743L83.6552 24.3789H83.2556C82.6483 24.3789 81.7532 23.8904 81.6573 23.4997C81.6094 23.3044 81.5614 21.5786 81.5614 19.6413C81.5614 16.9713 81.6094 16.0759 81.7692 15.9457C81.8811 15.848 82.3286 15.7503 82.7602 15.7177L83.5593 15.6689V13.2269L82.6803 13.178C82.2008 13.1455 81.7532 13.0315 81.6893 12.9338C81.6254 12.8199 81.5614 11.7616 81.5614 10.5732V8.42418H77.4059V10.4755ZM136.814 8.52186C136.751 8.58698 136.703 9.61264 136.703 10.8011C136.703 13.1129 136.687 13.1455 135.808 13.1455C135.408 13.1455 135.408 13.1617 135.456 14.399C135.504 15.6363 135.52 15.6689 135.935 15.7177C136.159 15.7503 136.431 15.8643 136.511 15.9619C136.607 16.0759 136.703 18.0458 136.751 20.553C136.798 22.9625 136.878 25.1603 136.942 25.4208C137.134 26.1371 138.125 27.0488 139.068 27.3582C140.123 27.7163 142.808 27.7489 143.08 27.407C143.208 27.2605 143.256 26.6744 143.224 25.8278L143.176 24.4603L142.616 24.3626C142.009 24.2649 141.322 23.9393 141.146 23.6625C141.082 23.5648 141.018 21.7903 141.018 19.7227C141.018 15.4735 140.922 15.7503 142.313 15.7503C143.224 15.7503 143.304 15.5875 143.224 14.106L143.176 13.2269L142.137 13.1455L141.098 13.0641L141.018 10.7848L140.938 8.50558L138.924 8.45674C137.821 8.44046 136.878 8.47302 136.814 8.52186ZM69.4943 12.7547C68.7112 12.9664 67.8001 13.5036 67.1928 14.1386C66.4576 14.92 66.2658 14.8712 66.1859 13.8781L66.1379 13.2269H62.1422V27.5535L64.156 27.5861C66.1379 27.6349 66.1859 27.6186 66.2818 27.2605C66.3297 27.0651 66.3777 24.9975 66.3777 22.6531C66.3777 18.0133 66.3936 17.883 67.3366 16.9713C67.7522 16.5643 67.976 16.4829 68.871 16.4341L69.9099 16.369L70.5332 17.0364C71.2684 17.8179 71.1885 17.069 71.2525 23.809C71.2684 25.5999 71.2844 27.1791 71.3004 27.3419C71.3324 27.5698 71.5881 27.6024 73.3782 27.5698L75.408 27.5535V16.1248L74.9445 15.1968C74.1454 13.585 72.9147 12.8199 71.0287 12.7222C70.3574 12.7059 69.6701 12.7059 69.4943 12.7547ZM89.473 12.7547C87.7468 13.2269 86.9157 13.699 85.8449 14.7735C84.4064 16.255 83.7511 17.9807 83.7511 20.3088C83.7671 24.3951 86.2764 27.4233 89.9845 27.7814C93.1491 28.0908 95.5945 27.1465 97.1608 25.0138C97.3845 24.7045 97.864 23.7114 97.864 23.5323C97.864 23.4672 96.937 23.402 95.8182 23.402H93.7724L93.2929 23.9067C92.7335 24.4928 91.9504 24.8673 91.2311 24.8673C90.5119 24.8673 89.4091 24.3463 88.8976 23.7928C88.514 23.3532 87.9546 22.0833 87.9546 21.6438C87.9546 21.4972 89.1214 21.4484 92.8774 21.4484C95.5785 21.4484 97.864 21.3833 97.9759 21.3182C98.2157 21.1554 97.9919 18.5668 97.6403 17.6225C96.921 15.6526 95.5625 13.992 94.188 13.4059C93.7884 13.2431 93.3249 13.0315 93.1651 12.9501C92.8294 12.771 89.9845 12.6245 89.473 12.7547ZM92.5897 16.3201C93.213 16.7597 93.7564 17.8016 93.6765 18.3877C93.6286 18.7622 93.5966 18.7622 90.8955 18.811C87.7788 18.8598 87.7628 18.8436 88.2583 17.6714C88.6099 16.8574 89.3132 16.1248 89.9685 15.9131C90.7197 15.6689 91.9344 15.8643 92.5897 16.3201ZM113.128 12.7547C111.274 13.2594 109.979 14.0897 108.972 15.3759C108.573 15.8968 108.253 16.3852 108.253 16.4829C108.253 16.5643 108.141 16.8574 107.997 17.1341C107.853 17.3946 107.646 18.2086 107.534 18.9412C106.974 22.4252 108.509 25.6813 111.386 27.1465L112.488 27.7163H114.806C117.203 27.7163 117.411 27.6675 118.882 26.8697C119.952 26.2837 121.711 24.0044 121.439 23.5486C121.375 23.4672 120.464 23.402 119.393 23.402H117.427L117.028 23.8742C115.429 25.7138 112.44 24.7696 111.801 22.2136C111.705 21.8717 111.705 21.5786 111.785 21.5135C111.865 21.4647 114.151 21.4321 116.884 21.4484C120.784 21.4484 121.838 21.4158 121.854 21.253C121.998 19.218 121.039 16.2062 119.841 14.9037C119.169 14.1711 118.003 13.3571 117.427 13.2106C117.171 13.1455 116.884 13.0315 116.772 12.9501C116.548 12.771 113.623 12.6245 113.128 12.7547ZM115.621 15.9294C116.34 16.1899 117.171 17.1016 117.299 17.8016C117.491 18.8598 117.507 18.8598 114.534 18.811C111.865 18.7622 111.849 18.7622 111.801 18.3877C111.737 17.9319 112.297 16.8085 112.776 16.3852C113.463 15.7991 114.662 15.6038 115.621 15.9294ZM127.033 12.7547C123.756 13.5525 122.574 14.7409 122.558 17.2155C122.558 19.8855 123.868 21.0088 127.752 21.7089C130.421 22.181 131.188 22.6043 131.156 23.63C131.141 24.3626 130.645 24.8347 129.654 25.0463C128.407 25.3231 127.432 25.0138 126.649 24.1184L126.026 23.402H124.092C122.526 23.402 122.158 23.4509 122.158 23.63C122.158 24.1021 122.797 25.3394 123.325 25.958C123.82 26.4953 124.204 26.7558 125.706 27.4884C125.85 27.5698 126.633 27.7 127.416 27.7977C128.871 27.9768 131.396 27.814 132.036 27.4884C132.179 27.4233 132.595 27.2116 132.947 27.0488C133.858 26.6093 134.721 25.6162 135.04 24.6719C135.392 23.5974 135.296 22.0996 134.801 21.0577C134.209 19.8367 132.643 18.9575 130.309 18.5342C127.305 17.997 127.257 17.9807 126.777 17.5086C126.202 16.9062 126.202 16.6946 126.777 16.0434C127.241 15.5224 127.273 15.5061 128.551 15.5061C129.83 15.5061 129.862 15.5224 130.325 16.0434C130.581 16.3364 130.789 16.6783 130.789 16.8085C130.789 17.0039 131.125 17.0527 132.787 17.0527C134.992 17.0527 134.928 17.1016 134.545 15.9457C133.842 13.8944 132.036 12.8524 129.031 12.7385C128.104 12.7059 127.209 12.7059 127.033 12.7547ZM105.776 13.0966C105.072 13.3408 104.097 14.1548 103.794 14.7409C103.49 15.327 103.218 15.0828 103.138 14.106L103.058 13.2269H99.0628L99.0148 20.0646C98.9988 23.8253 99.0148 27.0651 99.0628 27.2767C99.1427 27.6349 99.1906 27.6349 101.109 27.6024C102.211 27.5861 103.106 27.4884 103.17 27.3907C103.234 27.3093 103.298 25.5836 103.298 23.5648C103.298 20.3739 103.33 19.8041 103.602 19.0878C104.161 17.6063 105.36 16.7271 106.862 16.7271C107.278 16.7271 107.454 16.6457 107.502 16.4341C107.614 15.9619 107.63 13.7641 107.534 13.2757C107.438 12.885 107.358 12.8199 106.926 12.8361C106.639 12.8524 106.127 12.9664 105.776 13.0966ZM56.5482 13.3408C56.5002 13.4548 56.4842 16.662 56.5002 20.4716L56.5482 27.3907L58.4501 27.4721C59.6009 27.521 60.432 27.4884 60.5599 27.3907C60.7357 27.2605 60.7836 25.8766 60.7836 20.3413C60.7996 16.5643 60.7517 13.3897 60.7037 13.3083C60.5439 13.0641 56.6281 13.0966 56.5482 13.3408Z" fill="#8E939C"/>
</svg>
