<svg width="107" height="36" viewBox="0 0 107 36" fill="none" xmlns="http://www.w3.org/2000/svg">
<path id="Logo/Twitch" d="M101.595 6.70041H96.9348V0.122803H86.7016L81.9956 6.70041H73.6331L70.8369 9.51938V6.70041H64.3125V0.122803H43.8071V6.70041H14.9596L10.2527 0.122803H0V22.6746L13.0489 35.8298H26.0978V32.0712L29.8261 35.8298H54.9918V32.0712L58.7201 35.8298H70.8369V32.0712L74.5652 35.8298H97.8668L106.255 27.3729V11.3987L101.595 6.70041ZM15.8451 16.097H9.32065V17.9763H15.8451V25.4936H5.59239L1.86413 21.7349V2.00212H9.32065V8.57972H15.8451V16.097ZM43.8071 25.4936H21.4375L17.7092 21.7349V8.57972H25.1658V17.9763H27.0299V8.57972H34.4864V17.9763H36.3505V8.57972H43.8071V25.4936ZM53.1277 25.4936H45.6712V8.57972H53.1277V25.4936ZM53.1277 6.70041H45.6712V2.00212H53.1277V6.70041ZM68.9728 16.097H62.4484V17.9763H68.9728V25.4936H58.7201L54.9918 21.7349V2.00212H62.4484V8.57972H68.9728V16.097ZM85.75 16.097H78.2935V17.9763H85.75V25.4936H74.5652L70.8369 21.7349V12.3384L74.5652 8.57972H85.75V16.097ZM104.391 25.4936H96.9348V16.097H95.0706V25.4936H87.6141V2.00212H95.0706V8.57972H100.663L104.391 12.3384V25.4936Z" fill="#8E939C"/>
</svg>
