<svg width="137" height="32" viewBox="0 0 137 32" fill="none" xmlns="http://www.w3.org/2000/svg">
<g id="Logo/YouTube">
<path id="Vector" d="M22.8058 31.329L13.8452 31.1619C10.9438 31.1038 8.03538 31.22 5.19107 30.6172C0.864004 29.7165 0.557474 25.3004 0.236687 21.596C-0.205287 16.3881 -0.0342001 11.0859 0.799846 5.92157C1.27033 3.02347 3.12377 1.29478 5.98947 1.10593C15.663 0.42317 25.4007 0.503067 35.0528 0.822657C36.0722 0.851711 37.0987 1.01151 38.1038 1.19309C43.0653 2.07923 43.1865 7.08372 43.5073 11.2965C43.8281 15.5529 43.6926 19.831 43.0796 24.0583C42.5877 27.5593 41.6467 30.4937 37.6761 30.777C32.7003 31.1474 27.8386 31.4452 22.8486 31.3508C22.8486 31.329 22.8201 31.329 22.8058 31.329ZM17.5378 22.4676C21.2874 20.2741 24.9658 18.1168 28.6941 15.9378C24.9373 13.7443 21.2661 11.587 17.5378 9.40801V22.4676Z" fill="#8E939C"/>
<g id="Group">
<path id="Vector_2" d="M115.381 27.3491C115.21 28.0609 115.06 28.6202 114.91 29.2158H111.403V1.65088H115.495V11.8198C115.709 11.5437 115.816 11.4275 115.908 11.304C116.607 10.3235 117.512 9.68429 118.681 9.43733C120.542 9.0669 122.132 9.9022 122.695 11.7253C123.058 12.8584 123.294 14.0714 123.322 15.2554C123.379 18.2988 123.336 21.3349 123.229 24.3783C123.187 25.308 122.909 26.2596 122.559 27.1312C121.412 30.0075 117.662 30.4433 115.801 27.952C115.687 27.7994 115.581 27.6324 115.381 27.3491ZM115.581 19.766V24.8069C115.581 25.6276 116.008 26.1288 116.814 26.3177C117.605 26.5065 118.247 26.1942 118.567 25.4461C118.703 25.1337 118.838 24.8069 118.845 24.48C118.924 21.4003 118.995 18.3206 119.016 15.2336C119.016 14.6598 118.881 14.0642 118.71 13.5049C118.389 12.4953 117.505 12.1975 116.636 12.7858C115.98 13.2361 115.581 13.8753 115.581 14.7252V19.766ZM104.46 9.82956H108.744V29.2303H105.401C105.28 28.4967 105.159 27.7413 105.016 26.8552C104.788 27.1966 104.652 27.4145 104.51 27.6324C103.398 29.2666 101.822 29.8259 99.9618 29.5281C98.3721 29.2666 97.4169 28.0173 97.203 25.969C97.1388 25.3589 97.1103 24.7415 97.1103 24.1314C97.0961 19.5917 97.1103 15.0375 97.1103 10.4978V9.81503H101.445V10.6068C101.445 14.9939 101.43 19.3738 101.459 23.7609C101.459 24.3856 101.523 25.032 101.63 25.6567C101.751 26.2959 102.207 26.5283 102.82 26.4847C103.811 26.4048 104.496 25.6567 104.496 24.6543V10.6867C104.46 10.4034 104.46 10.1419 104.46 9.82956ZM74.9618 9.81503H79.2675V10.6358C79.2675 15.0012 79.2532 19.3593 79.2817 23.7101C79.2817 24.3347 79.3387 24.9812 79.4671 25.5913C79.631 26.3104 80.0445 26.5428 80.7502 26.4484C81.7268 26.3104 82.3185 25.6204 82.3256 24.6108V10.7157V9.84409H86.6099V29.2303H83.2809C83.1597 28.5112 83.0385 27.7704 82.8817 26.8334C82.6678 27.1602 82.5466 27.3491 82.4254 27.5452C81.3134 29.2085 79.7522 29.8187 77.8489 29.5209C76.3234 29.2884 75.3895 28.1408 75.1044 26.2596C75.026 25.6712 74.9689 25.0901 74.9689 24.5018C74.9547 19.7878 74.9547 15.052 74.9547 10.338L74.9618 9.81503ZM72.7519 20.1728C72.7377 20.8265 72.6949 21.4802 72.6593 22.1339C72.4953 24.095 72.4169 26.877 70.8629 28.3079C69.872 29.2085 68.6173 29.5354 67.3199 29.579C66.7425 29.5935 66.158 29.5935 65.5806 29.5136C62.8503 29.0923 61.5814 27.8648 61.1252 24.8069C60.6048 21.2768 60.562 17.6887 61.1822 14.1586C61.8238 10.5051 64.0337 9.21217 67.4696 9.45186C70.6775 9.68429 72.1104 11.827 72.4882 14.8777C72.6949 16.6282 72.7947 18.4005 72.7519 20.1728ZM68.3892 19.5045C68.3892 18.2625 68.4177 17.0131 68.375 15.7711C68.3465 15.052 68.2538 14.3257 68.1041 13.6138C67.933 12.7931 67.4197 12.4008 66.7782 12.4154C66.1509 12.4299 65.7089 12.8221 65.4808 13.5848C65.4024 13.8681 65.3168 14.1586 65.3168 14.4419C65.3168 16.3885 65.3025 18.3424 65.2883 20.289C65.274 22.1048 65.0459 24.0079 65.6091 25.7439C65.7802 26.2741 66.2221 26.5646 66.7996 26.5646C67.3627 26.5646 67.7334 26.2814 67.9401 25.7729C68.1041 25.3807 68.2467 24.9521 68.2467 24.5309C68.2966 22.8603 68.3892 21.1824 68.3892 19.5045ZM54.8378 15.851C55.2156 13.9697 55.572 12.1321 55.9641 10.2872C56.456 7.94106 57.0049 5.59495 57.4896 3.24158C57.6108 2.66777 57.8389 2.52976 58.3736 2.54429C59.5213 2.58787 60.6904 2.55881 61.9165 2.55881C61.5173 4.05509 61.1252 5.47873 60.7403 6.88059C59.5213 11.2823 58.3023 15.6985 57.0975 20.1147C57.0049 20.456 56.9621 20.8265 56.9621 21.1896C56.9478 23.6011 56.9621 26.0053 56.9621 28.4168V29.2013H52.7776C52.7634 28.9834 52.7348 28.7655 52.7348 28.5476C52.7348 27.182 52.6279 25.8092 52.7491 24.4582C53.0556 21.2114 52.0434 18.2261 51.2236 15.2045C50.14 11.2096 49.0422 7.20018 47.9587 3.20526C47.9017 3.01641 47.8803 2.81304 47.8232 2.5806H52.0933C52.9915 6.98954 53.8968 11.3985 54.8378 15.851ZM136.71 20.9136H129.496C129.574 22.3881 129.602 23.79 129.752 25.1773C129.859 26.1433 130.379 26.5574 131.199 26.5646C132.055 26.5792 132.554 26.1433 132.753 25.1846C132.817 24.8722 132.86 24.5599 132.889 24.2403C132.917 23.957 132.932 23.652 132.953 23.2452C134.172 23.3106 135.362 23.3832 136.539 23.4341C137.223 25.5042 135.99 28.1626 133.915 28.9834C132.283 29.6371 130.608 29.6371 128.939 29.1359C127.706 28.7655 126.787 27.9665 126.373 26.739C125.988 25.5913 125.625 24.3928 125.546 23.1944C125.332 20.2381 125.254 17.2528 125.696 14.2893C125.774 13.7954 125.91 13.3233 126.06 12.8439C126.658 10.8682 127.963 9.65524 129.98 9.45186C131.078 9.34291 132.212 9.38649 133.295 9.57534C135.049 9.88767 135.983 11.1733 136.389 12.8584C136.574 13.6502 136.71 14.4637 136.738 15.2699C136.745 17.1221 136.71 18.9598 136.71 20.9136ZM132.611 18.3642C132.611 16.9042 132.625 15.5314 132.596 14.1513C132.596 13.8245 132.475 13.4831 132.354 13.1708C132.112 12.5606 131.606 12.3936 131 12.3936C130.394 12.3936 130.009 12.7059 129.859 13.2652C129.403 14.9431 129.553 16.6572 129.567 18.3787C130.657 18.3642 131.648 18.3642 132.611 18.3642Z" fill="#8E939C"/>
<path id="Vector_3" d="M89.9173 6.11831H85.6758V2.61731H98.3361V6.09652H94.1231V29.2017H89.9244L89.9173 6.11831Z" fill="#8E939C"/>
</g>
</g>
</svg>
