<svg width="138" height="32" viewBox="0 0 138 32" fill="none" xmlns="http://www.w3.org/2000/svg">
<g id="Talius Logo  Colored Black">
<path id="Vector" d="M60.764 4.95825V21.2783H70.2453V25.6684H55.8633V4.95825H60.764Z" fill="black"/>
<path id="Vector_2" d="M82.916 25.6684H78.001V4.95825H82.916V25.6684Z" fill="black"/>
<path id="Vector_3" d="M102.037 26.1358C99.3333 26.1358 97.1508 25.4167 95.522 23.9533C93.8645 22.5583 93.0483 20.4908 93.0483 17.787V4.95825H97.967V17.8445C97.967 19.1821 98.3265 20.1708 99.0133 20.8684C99.7 21.5659 100.728 21.8859 102.037 21.8859C103.346 21.8859 104.335 21.5731 105.061 20.854C105.787 20.1349 106.14 19.1677 106.14 17.8302V4.95825H111.055V17.787C111.055 20.4621 110.238 22.4971 108.638 23.9533C107.038 25.4095 104.831 26.1358 102.037 26.1358Z" fill="black"/>
<path id="Vector_4" d="M128.514 26.1357C125.605 26.1357 123.398 25.4957 121.826 24.2157C120.255 22.9357 119.439 21.1595 119.439 18.862H124.21C124.21 20.142 124.588 21.0445 125.314 21.537C126.04 22.0296 127.176 22.2921 128.69 22.2921C131.016 22.2921 132.21 21.5047 132.21 19.9047C132.228 19.6013 132.164 19.2988 132.026 19.0283C131.887 18.7577 131.679 18.5291 131.423 18.3658C130.901 18.0063 129.941 17.7258 128.485 17.4346L126.799 17.1146C122.175 16.3559 119.878 14.177 119.878 10.6427C119.847 9.78366 120.021 8.92974 120.385 8.15098C120.749 7.37222 121.292 6.6908 121.97 6.16265C123.365 5.05524 125.375 4.50513 127.964 4.50513C130.696 4.50513 132.821 5.0876 134.274 6.24895C135.727 7.4103 136.485 9.10018 136.6 11.2539H131.955C131.959 10.8331 131.87 10.4167 131.694 10.0344C131.518 9.65212 131.259 9.31346 130.937 9.04265C130.326 8.57524 129.366 8.34513 128.061 8.34513C125.936 8.34513 124.89 9.04265 124.89 10.4377C124.867 10.7469 124.925 11.0567 125.057 11.337C125.189 11.6174 125.392 11.8587 125.645 12.0377C126.17 12.3973 127.083 12.7352 128.41 12.9689L130.154 13.2889C132.67 13.7528 134.468 14.4827 135.594 15.4714C136.719 16.4602 137.309 17.8552 137.309 19.5991C137.309 21.724 136.525 23.3528 134.982 24.4566C133.44 25.5604 131.236 26.1357 128.514 26.1357Z" fill="black"/>
<path id="Vector_5" d="M51.9621 32L31.6727 18.3946L28.0448 25.6036H22.292L35.4731 0L51.9621 32ZM35.4731 10.898L31.8273 18.1106H39.1154L35.4731 10.898Z" fill="#FA4717"/>
<path id="Vector_6" d="M0 4.95825H17.6575V9.34836H11.2863V25.6684H6.34247V9.34836H0V4.95825Z" fill="black"/>
</g>
</svg>
