<svg width="32" height="32" viewBox="0 0 32 32" fill="none" xmlns="http://www.w3.org/2000/svg">
<g id="award-r">
<g id="vector">
<path fill-rule="evenodd" clip-rule="evenodd" d="M15.9972 8.33333C13.9721 8.33333 12.3305 9.97496 12.3305 12C12.3305 14.025 13.9721 15.6667 15.9972 15.6667C18.0222 15.6667 19.6638 14.025 19.6638 12C19.6638 9.97496 18.0222 8.33333 15.9972 8.33333ZM14.3305 12C14.3305 11.0795 15.0767 10.3333 15.9972 10.3333C16.9176 10.3333 17.6638 11.0795 17.6638 12C17.6638 12.9205 16.9176 13.6667 15.9972 13.6667C15.0767 13.6667 14.3305 12.9205 14.3305 12Z" fill="black"/>
<path fill-rule="evenodd" clip-rule="evenodd" d="M15.9972 3C11.0266 3 6.99716 7.02944 6.99716 12C6.99716 13.4281 7.32979 14.7785 7.9218 15.978L3.42188 23.7721L8.88626 24.3075L12.0821 28.7721L15.9946 21.9955L19.9071 28.7721L23.1029 24.3075L28.5673 23.7721L24.0702 15.9828C24.6636 14.7821 24.9972 13.43 24.9972 12C24.9972 7.02944 20.9677 3 15.9972 3ZM6.70574 22.0843L9.15328 17.845C10.4644 19.3787 12.282 20.4664 14.3471 20.8491L11.9019 25.0843L9.98437 22.4055L6.70574 22.0843ZM22.838 17.8486C21.5261 19.3816 19.708 20.4684 17.6426 20.8499L20.0873 25.0843L22.0048 22.4055L25.2834 22.0843L22.838 17.8486ZM8.99716 12C8.99716 8.13401 12.1312 5 15.9972 5C19.8632 5 22.9972 8.13401 22.9972 12C22.9972 15.866 19.8632 19 15.9972 19C12.1312 19 8.99716 15.866 8.99716 12Z" fill="black"/>
</g>
</g>
</svg>
